<svg xmlns="http://www.w3.org/2000/svg" xmlns:xlink="http://www.w3.org/1999/xlink" viewBox="0 0 454.2847 100">
  <defs>
    <symbol id="QuatalogHWordmark" data-name="QuatalogHWordmark" viewBox="0 0 454.285 100" preserveAspectRatio="xMinYMin">
      <g>
        <path d="M159.0254,71.5186l7.8384,9.2978L151.4951,88.27,147.96,75.2061c-.9986.0771-1.9976.1543-3.0738.1543-15.5219,0-25.8193-11.2188-25.8193-28.125,0-16.752,10.374-27.9708,25.8965-27.9708s25.8193,11.2188,25.8193,27.9708C170.7827,58.2246,166.4023,66.8311,159.0254,71.5186Zm-14.1392-9.2217c6.3013,0,10.5279-5.9942,10.5279-14.9844s-4.2266-14.9844-10.4507-14.9844c-6.3013,0-10.5279,5.9932-10.5279,14.9844S138.6621,62.2969,144.8862,62.2969Z" style="fill: #f5b53f"/>
        <path d="M215.1265,36.5547V74.5918H202.3706L201.0645,70.52c-3.7657,2.7657-7.7613,4.8409-11.834,4.8409-5.9937,0-12.4488-3.9961-12.4488-16.5987V36.5547h14.9844V57.84c0,4.0733,1.6138,5.3028,4.5337,5.3028a9.4658,9.4658,0,0,0,3.8423-.9229V36.5547Z" style="fill: #f5b53f"/>
        <path d="M259.2378,53.5371V74.5918h-13.294l-1.2294-4.9951A15.5816,15.5816,0,0,1,232.65,75.36c-7.1465,0-11.834-5.0723-11.834-11.2959,0-7.7618,7.3008-11.22,14.8311-11.22a57.3366,57.3366,0,0,1,8.6064.8457V52.5381c0-3.3047-2.92-5.2256-7.7607-5.2256a33.2209,33.2209,0,0,0-10.6045,1.998L223.89,39.09c3.6885-1.9209,11.2959-3.3037,16.8282-3.3037C253.0132,35.7861,259.2378,42.8555,259.2378,53.5371Zm-14.9844,10.835V59.8379a18.2229,18.2229,0,0,0-3.9189-.3838c-2.6895,0-4.0723,1.1523-4.0723,2.92,0,1.8438.9981,2.9961,3.3037,2.9961A12.8672,12.8672,0,0,0,244.2534,64.3721Z" style="fill: #f5b53f"/>
        <path d="M296.8179,73.5156c-2.3828,1.0762-8.1455,1.8448-11.5264,1.8448-6.5322,0-15.6-2.6895-15.6-16.9053V47.082h-6.2246V36.5547h6.916l5.1484-10.4512h9.1446V36.5547H296.28V47.082H284.6763v9.836c0,4.61,1.69,6.2246,4.457,6.2246a19.18,19.18,0,0,0,5.6865-.999Z" style="fill: #f5b53f"/>
        <path d="M338.0854,53.5371V74.5918H324.7915l-1.2295-4.9951A15.5815,15.5815,0,0,1,311.4976,75.36c-7.1465,0-11.834-5.0723-11.834-11.2959,0-7.7618,7.3008-11.22,14.831-11.22a57.338,57.338,0,0,1,8.6065.8457V52.5381c0-3.3047-2.92-5.2256-7.7608-5.2256a33.222,33.222,0,0,0-10.6045,1.998L302.7378,39.09c3.6885-1.9209,11.2959-3.3037,16.8281-3.3037C331.8608,35.7861,338.0854,42.8555,338.0854,53.5371Zm-14.9843,10.835V59.8379a18.2239,18.2239,0,0,0-3.919-.3838c-2.6894,0-4.0722,1.1523-4.0722,2.92,0,1.8438.998,2.9961,3.3037,2.9961A12.868,12.868,0,0,0,323.1011,64.3721Z" style="fill: #f5b53f"/>
        <path d="M346.1567,20.8018l14.9854-1.5372V74.5918H346.1567Z" style="fill: #f5b53f"/>
        <path d="M367.5972,55.6113c0-11.91,8.1455-19.8252,20.3632-19.8252,12.1417,0,20.3643,7.9151,20.3643,19.8252,0,11.834-8.2226,19.7491-20.44,19.7491C375.7427,75.36,367.5972,67.4453,367.5972,55.6113Zm25.2812,0c0-4.61-1.9971-7.6074-4.918-7.6074-2.996,0-4.9179,2.9971-4.9179,7.6074,0,4.5342,1.9219,7.5313,4.8418,7.5313C390.8813,63.1426,392.8784,60.0684,392.8784,55.6113Z" style="fill: #f5b53f"/>
        <path d="M454.2817,78.8184c0,7.7607-8.0683,12.2949-21.747,12.2949s-22.0537-3.6885-22.0537-9.6826c0-4.0723,2.8427-6.6856,7.0693-8.0684a10.0957,10.0957,0,0,1-3.8418-7.8379l4.918-6.6855a10.9454,10.9454,0,0,1-5.7637-10.1436c0-8.1455,6.7627-12.9092,18.4424-12.9092a35.4045,35.4045,0,0,1,6.6855.6143c2.9971-3.3037,7.2237-6.7617,12.1416-7.3L453.36,39.8584a22.6945,22.6945,0,0,0-6.7627.8457,11.1407,11.1407,0,0,1,3.0742,7.9912c0,8.376-6.84,12.833-18.3662,12.833a30.7459,30.7459,0,0,1-6.2237-.5381l-.7685,1.9981c0,.999,1.46,1.3066,3.6885,1.5371l10.1435.999C448.2114,66.1387,454.2817,70.9805,454.2817,78.8184Zm-12.7558,1.0752c0-.9219-.6914-1.9209-2.6133-2.1514l-13.37-1.46c-1.23.6914-2.1514,1.5371-2.1514,2.6895,0,1.5371,4.4561,2.7666,9.6817,2.7666C438.5288,81.7383,441.5259,81.2,441.5259,79.8936ZM426.4644,48.7725c0,2.0752,1.9209,4.0722,5.0712,4.0722,2.9971,0,4.4571-1.9209,4.4571-3.7646,0-2.2285-1.69-4.1494-4.9942-4.1494C427.9243,44.9307,426.4644,46.7744,426.4644,48.7725Z" style="fill: #f5b53f"/>
      </g>
      <rect id="Back_Rectangle" data-name="Back Rectangle" width="100" height="100" rx="18.75" style="fill: #494766"/>
      <g id="BR_Circle" data-name="BR Circle">
        <circle cx="81.25" cy="81.25" r="15.625" style="fill: #201f2c"/>
        <path d="M81.25,66.667A14.583,14.583,0,1,1,66.6665,81.25,14.6,14.6,0,0,1,81.25,66.667m0-2.0835A16.6665,16.6665,0,1,0,97.9165,81.25,16.6665,16.6665,0,0,0,81.25,64.5835Z" style="fill: #201f2c"/>
      </g>
      <g id="BC_Circle" data-name="BC Circle">
        <circle cx="50" cy="81.25" r="15.625" style="fill: #f5b53f"/>
        <path d="M50,66.667A14.583,14.583,0,1,1,35.4165,81.25,14.6,14.6,0,0,1,50,66.667m0-2.0835A16.6665,16.6665,0,1,0,66.6665,81.25,16.6665,16.6665,0,0,0,50,64.5835Z" style="fill: #201f2c"/>
      </g>
      <g id="BL_Circle" data-name="BL Circle">
        <circle cx="18.75" cy="81.25" r="15.625" style="fill: #f5b53f"/>
        <path d="M18.75,66.667A14.583,14.583,0,1,1,4.1665,81.25,14.6,14.6,0,0,1,18.75,66.667m0-2.0835A16.6665,16.6665,0,1,0,35.4165,81.25,16.6665,16.6665,0,0,0,18.75,64.5835Z" style="fill: #201f2c"/>
      </g>
      <g id="MR_Circle" data-name="MR Circle">
        <circle cx="81.25" cy="50" r="15.625" style="fill: #f5b53f"/>
        <path d="M81.25,35.417A14.583,14.583,0,1,1,66.6665,50,14.6,14.6,0,0,1,81.25,35.417m0-2.0835A16.6665,16.6665,0,1,0,97.9165,50,16.6665,16.6665,0,0,0,81.25,33.3335Z" style="fill: #201f2c"/>
      </g>
      <g id="MC_Circle" data-name="MC Circle">
        <circle cx="50" cy="50" r="15.625" style="fill: #201f2c"/>
        <path d="M50,35.417A14.583,14.583,0,1,1,35.4165,50,14.6,14.6,0,0,1,50,35.417m0-2.0835A16.6665,16.6665,0,1,0,66.6665,50,16.6665,16.6665,0,0,0,50,33.3335Z" style="fill: #201f2c"/>
      </g>
      <g id="ML_Circle" data-name="ML Circle">
        <circle cx="18.75" cy="50" r="15.625" style="fill: #f5b53f"/>
        <path d="M18.75,35.417A14.583,14.583,0,1,1,4.1665,50,14.6,14.6,0,0,1,18.75,35.417m0-2.0835A16.6665,16.6665,0,1,0,35.4165,50,16.6665,16.6665,0,0,0,18.75,33.3335Z" style="fill: #201f2c"/>
      </g>
      <g id="TR_Circle" data-name="TR Circle">
        <circle cx="81.25" cy="18.75" r="15.625" style="fill: #f5b53f"/>
        <path d="M81.25,4.167A14.583,14.583,0,1,1,66.6665,18.75,14.6,14.6,0,0,1,81.25,4.167m0-2.0835A16.6665,16.6665,0,1,0,97.9165,18.75,16.6665,16.6665,0,0,0,81.25,2.0835Z" style="fill: #201f2c"/>
      </g>
      <g id="TC_Circle" data-name="TC Circle">
        <circle cx="50" cy="18.75" r="15.625" style="fill: #f5b53f"/>
        <path d="M50,4.167A14.583,14.583,0,1,1,35.4165,18.75,14.6,14.6,0,0,1,50,4.167m0-2.0835A16.6665,16.6665,0,1,0,66.6665,18.75,16.6665,16.6665,0,0,0,50,2.0835Z" style="fill: #201f2c"/>
      </g>
      <g id="TL_Circle" data-name="TL Circle">
        <circle cx="18.75" cy="18.75" r="15.625" style="fill: #f5b53f"/>
        <path d="M18.75,4.167A14.583,14.583,0,1,1,4.1665,18.75,14.6,14.6,0,0,1,18.75,4.167m0-2.0835A16.6665,16.6665,0,1,0,35.4165,18.75,16.6665,16.6665,0,0,0,18.75,2.0835Z" style="fill: #201f2c"/>
      </g>
    </symbol>
  </defs>
  <g id="Layer_2" data-name="Layer 2">
    <g id="hwordmark">
      <use width="454.2847" height="100" xlink:href="#QuatalogHWordmark"/>
    </g>
  </g>
</svg>
