<svg xmlns="http://www.w3.org/2000/svg" xmlns:xlink="http://www.w3.org/1999/xlink" viewBox="0 0 337.7534 181.1735">
  <defs>
    <symbol id="QuatalogVWordmark" data-name="QuatalogVWordmark" viewBox="0 0 337.753 181.173" preserveAspectRatio="slice">
      <g>
        <path d="M42.4941,161.5778l7.8384,9.2978-15.3686,7.4531-3.5352-13.0634c-.9985.0771-1.9975.1543-3.0737.1543-15.522,0-25.8194-11.2188-25.8194-28.125,0-16.752,10.3741-27.9707,25.8965-27.9707s25.8194,11.2187,25.8194,27.9707C54.2515,148.2838,49.8711,156.89,42.4941,161.5778ZM28.355,152.3561c6.3012,0,10.5278-5.9942,10.5278-14.9844s-4.2266-14.9844-10.4507-14.9844c-6.3012,0-10.5278,5.9932-10.5278,14.9844S22.1309,152.3561,28.355,152.3561Z" style="fill: #f5b53f"/>
        <path d="M98.5952,126.6139V164.651H85.8394l-1.3062-4.0723c-3.7656,2.7657-7.7612,4.8409-11.834,4.8409-5.9936,0-12.4487-3.9961-12.4487-16.5987v-22.207H75.2349v21.2852c0,4.0732,1.6137,5.3027,4.5337,5.3027a9.4654,9.4654,0,0,0,3.8422-.9229v-25.665Z" style="fill: #f5b53f"/>
        <path d="M142.7065,143.5963V164.651H129.4126l-1.23-4.9951a15.5812,15.5812,0,0,1-12.0644,5.7637c-7.1465,0-11.834-5.0723-11.834-11.2959,0-7.7618,7.3007-11.22,14.831-11.22a57.3511,57.3511,0,0,1,8.6065.8457v-1.1523c0-3.3047-2.92-5.2256-7.7608-5.2256a33.2193,33.2193,0,0,0-10.6045,1.9981l-1.998-10.2207c3.6885-1.9209,11.2959-3.3038,16.8281-3.3038C136.4819,125.8453,142.7065,132.9147,142.7065,143.5963Zm-14.9843,10.835v-4.5342a18.2239,18.2239,0,0,0-3.919-.3838c-2.6894,0-4.0722,1.1524-4.0722,2.92,0,1.8438.998,2.9961,3.3037,2.9961A12.868,12.868,0,0,0,127.7222,154.4313Z" style="fill: #f5b53f"/>
        <path d="M180.2866,163.5748c-2.3828,1.0762-8.1455,1.8448-11.5263,1.8448-6.5323,0-15.6-2.69-15.6-16.9053V137.1412H146.936V126.6139h6.9161l5.1484-10.4512h9.1445v10.4512h11.6035v10.5273H168.145v9.836c0,4.61,1.69,6.2246,4.4571,6.2246a19.18,19.18,0,0,0,5.6865-.999Z" style="fill: #f5b53f"/>
        <path d="M221.5542,143.5963V164.651H208.26l-1.23-4.9951a15.5812,15.5812,0,0,1-12.0645,5.7637c-7.1465,0-11.834-5.0723-11.834-11.2959,0-7.7618,7.3008-11.22,14.8311-11.22a57.35,57.35,0,0,1,8.6064.8457v-1.1523c0-3.3047-2.92-5.2256-7.7607-5.2256a33.2183,33.2183,0,0,0-10.6045,1.9981l-1.9981-10.2207c3.6885-1.9209,11.2959-3.3038,16.8282-3.3038C215.33,125.8453,221.5542,132.9147,221.5542,143.5963ZM206.57,154.4313v-4.5342a18.2229,18.2229,0,0,0-3.9189-.3838c-2.69,0-4.0723,1.1524-4.0723,2.92,0,1.8438.9981,2.9961,3.3037,2.9961A12.8672,12.8672,0,0,0,206.57,154.4313Z" style="fill: #f5b53f"/>
        <path d="M229.6255,110.861l14.9853-1.5371V164.651H229.6255Z" style="fill: #f5b53f"/>
        <path d="M251.0659,145.6705c0-11.91,8.1455-19.8252,20.3633-19.8252,12.1416,0,20.3643,7.9151,20.3643,19.8252,0,11.834-8.2227,19.7491-20.44,19.7491C259.2114,165.42,251.0659,157.5045,251.0659,145.6705Zm25.2813,0c0-4.61-1.9971-7.6074-4.918-7.6074-2.9961,0-4.918,2.9971-4.918,7.6074,0,4.5342,1.9219,7.5313,4.8418,7.5313C274.35,153.2018,276.3472,150.1276,276.3472,145.6705Z" style="fill: #f5b53f"/>
        <path d="M337.7505,168.8776c0,7.7607-8.0684,12.2949-21.7471,12.2949S293.95,177.484,293.95,171.49c0-4.0723,2.8428-6.6856,7.0693-8.0684a10.0957,10.0957,0,0,1-3.8418-7.8379l4.918-6.6855a10.9455,10.9455,0,0,1-5.7637-10.1436c0-8.1455,6.7627-12.9092,18.4424-12.9092a35.4064,35.4064,0,0,1,6.6856.6143c2.997-3.3037,7.2236-6.7617,12.1416-7.3l3.2275,10.7578a22.6949,22.6949,0,0,0-6.7627.8457,11.14,11.14,0,0,1,3.0742,7.9912c0,8.376-6.84,12.833-18.3662,12.833a30.7442,30.7442,0,0,1-6.2236-.5381l-.7686,1.9981c0,.999,1.46,1.3066,3.6885,1.5371l10.1436.999C331.68,156.1979,337.7505,161.04,337.7505,168.8776Zm-12.7559,1.0752c0-.9219-.6914-1.9209-2.6133-2.1514l-13.37-1.46c-1.2295.6914-2.1513,1.5372-2.1513,2.69,0,1.5371,4.456,2.7666,9.6816,2.7666C321.9976,171.7975,324.9946,171.2594,324.9946,169.9528Zm-15.0615-31.1211c0,2.0752,1.9209,4.0722,5.0713,4.0722,2.9971,0,4.457-1.9209,4.457-3.7646,0-2.2285-1.69-4.1494-4.9941-4.1494C311.3931,134.99,309.9331,136.8336,309.9331,138.8317Z" style="fill: #f5b53f"/>
      </g>
      <rect id="Back_Rectangle" data-name="Back Rectangle" x="120.8765" width="96" height="96" rx="18" style="fill: #494766"/>
      <g id="BR_Circle" data-name="BR Circle">
        <circle cx="198.8765" cy="78" r="15" style="fill: #201f2c"/>
        <path d="M198.8765,64a14,14,0,1,1-14,14,14.0158,14.0158,0,0,1,14-14m0-2a16,16,0,1,0,16,16,16,16,0,0,0-16-16Z" style="fill: #201f2c"/>
      </g>
      <g id="BC_Circle" data-name="BC Circle">
        <circle cx="168.8765" cy="78" r="15" style="fill: #f5b53f"/>
        <path d="M168.8765,64a14,14,0,1,1-14,14,14.0158,14.0158,0,0,1,14-14m0-2a16,16,0,1,0,16,16,16,16,0,0,0-16-16Z" style="fill: #201f2c"/>
      </g>
      <g id="BL_Circle" data-name="BL Circle">
        <circle cx="138.8765" cy="78" r="15" style="fill: #f5b53f"/>
        <path d="M138.8765,64a14,14,0,1,1-14,14,14.0158,14.0158,0,0,1,14-14m0-2a16,16,0,1,0,16,16,16,16,0,0,0-16-16Z" style="fill: #201f2c"/>
      </g>
      <g id="MR_Circle" data-name="MR Circle">
        <circle cx="198.8765" cy="48" r="15" style="fill: #f5b53f"/>
        <path d="M198.8765,34a14,14,0,1,1-14,14,14.0158,14.0158,0,0,1,14-14m0-2a16,16,0,1,0,16,16,16,16,0,0,0-16-16Z" style="fill: #201f2c"/>
      </g>
      <g id="MC_Circle" data-name="MC Circle">
        <circle cx="168.8765" cy="48" r="15" style="fill: #201f2c"/>
        <path d="M168.8765,34a14,14,0,1,1-14,14,14.0158,14.0158,0,0,1,14-14m0-2a16,16,0,1,0,16,16,16,16,0,0,0-16-16Z" style="fill: #201f2c"/>
      </g>
      <g id="ML_Circle" data-name="ML Circle">
        <circle cx="138.8765" cy="48" r="15" style="fill: #f5b53f"/>
        <path d="M138.8765,34a14,14,0,1,1-14,14,14.0158,14.0158,0,0,1,14-14m0-2a16,16,0,1,0,16,16,16,16,0,0,0-16-16Z" style="fill: #201f2c"/>
      </g>
      <g id="TR_Circle" data-name="TR Circle">
        <circle cx="198.8765" cy="18" r="15" style="fill: #f5b53f"/>
        <path d="M198.8765,4a14,14,0,1,1-14,14,14.0158,14.0158,0,0,1,14-14m0-2a16,16,0,1,0,16,16,16,16,0,0,0-16-16Z" style="fill: #201f2c"/>
      </g>
      <g id="TC_Circle" data-name="TC Circle">
        <circle cx="168.8765" cy="18" r="15" style="fill: #f5b53f"/>
        <path d="M168.8765,4a14,14,0,1,1-14,14,14.0158,14.0158,0,0,1,14-14m0-2a16,16,0,1,0,16,16,16,16,0,0,0-16-16Z" style="fill: #201f2c"/>
      </g>
      <g id="TL_Circle" data-name="TL Circle">
        <circle cx="138.8765" cy="18" r="15" style="fill: #f5b53f"/>
        <path d="M138.8765,4a14,14,0,1,1-14,14,14.0158,14.0158,0,0,1,14-14m0-2a16,16,0,1,0,16,16,16,16,0,0,0-16-16Z" style="fill: #201f2c"/>
      </g>
    </symbol>
  </defs>
  <g id="Layer_2" data-name="Layer 2">
    <g id="vwordmark">
      <use width="337.7534" height="181.1735" xlink:href="#QuatalogVWordmark"/>
    </g>
  </g>
</svg>
